<?xml version="1.0" encoding="UTF-8"?>
<svg version="1.1" viewBox="0 0 2048 1563" width="1280" height="1280" xmlns="http://www.w3.org/2000/svg">
<path transform="translate(0)" d="m0 0h2048v1563h-2048z" fill="#FCFCFC"/>
<path transform="translate(615,173)" d="m0 0h392l-1 392h-392l-1-85v-294l1-12z" fill="#F1471C"/>
<path transform="translate(1049,173)" d="m0 0h391l1 1v391h-391l-1-1z" fill="#7DB103"/>
<path transform="translate(639,607)" d="m0 0h366l1 1v390l-16 1-377-1v-388l1-2z" fill="#009BF0"/>
<path transform="translate(1049,607)" d="m0 0h391l1 2v389h-391l-1-1z" fill="#FEB102"/>
<path transform="translate(201,1127)" d="m0 0h71l3 12 26 65 11 27 12 31 12 29 7 19 6 16 5 15-3 6 10-1 7-24 8-21 15-36 15-37 20-49 13-31 7-18v-3h69v288l-48 1v-61l1-165v-10l-2 1-1 8-4 3-6 20-13 32-11 27-20 49-11 28-11 26-12 29-4 12-5 1h-27l-3-7-5-13-13-30-14-35-15-36-11-27-15-36-10-25-5-15-2-2-3-9-2 10 1 28 1 43v153l-1 1h-43l-1-2z" fill="#666767"/>
<path transform="translate(1476,1204)" d="m0 0h20l20 3 17 5 17 9 10 8 7 7 7 11 7 14 5 16 3 21v27l-3 19-5 16-10 19-9 11-11 10-15 9-20 8h-7l-3 2-7 1h-31l-18-3-18-6-15-8-10-8-8-8-8-13-6-12-6-21-2-10v-31l3-17 5-17 7-16 8-11 5-6 14-11 16-9 16-5z" fill="#666767"/>
<path transform="translate(1075,1204)" d="m0 0h16l23 3 17 5 16 8 11 8 8 8 10 16 6 14 5 19 1 10v32l-2 13-5 16-8 18-8 11-6 7-11 9-10 6-16 7-15 4-12 2h-34l-23-6-18-8-9-7-10-9-8-10-8-14-5-15-2-10-2-19v-17l4-28 5-15 7-13 8-11 10-10 14-10 15-7 16-4z" fill="#666767"/>
<path transform="translate(1693,1106)" d="m0 0h27l14 2v39l-6-1-8-2h-16l-11 4-5 5-5 8-4 16v33h78v-49l24-7 19-6 4 1-1 61 34-1h16v37h-48l-2-1 1 103 2 17 2 7 8 6 7 3 6 1h8l9-2 4-2h3v36l-9 3-7 2-9 1h-19l-13-2-11-4-10-6-8-9-6-13-3-8-1-11v-121h-78v169h-46l-1-20v-108l1-28 1-13h-37v-37h36v-35l2-17 5-15 7-11 10-10 11-7 13-6z" fill="#666767"/>
<path transform="translate(1288,1204)" d="m0 0h11l24 4 18 4v42l-5-2-3-3-21-7-12-2h-9l-12 2-12 6-2 4-2 5v13l3 9 7 4 18 8 16 8 17 8 9 7 9 9 5 7 3 8 2 13v12l-2 12-8 16-10 11-11 7-11 5-17 5-6 1h-29l-25-5-17-5v-44l5 1 1 4 28 10 11 3h21l12-4 7-6 4-8v-9l-4-9-6-5-21-11-20-9-13-7-10-8-7-8-5-11-3-13v-19l4-14 7-12 10-10 13-8 10-4 13-3z" fill="#666767"/>
<path transform="translate(751,1204)" d="m0 0h16l24 4 17 4 2 1 1 45-6-3-7-4-15-6-17-4-12 1-18 5-13 7-10 10-9 14-5 14-2 15v13l2 15 5 13 7 12 7 8 11 7 12 5 11 2h16l16-4 15-6 8-5 3-1v42l-11 4-20 6-8 2h-34l-21-5-21-8-11-8-10-9-7-9-10-18-6-21-2-15v-21l3-20 7-21 8-16 10-13 12-11 13-8 11-5 17-5z" fill="#666767"/>
<path transform="translate(1474,1241)" d="m0 0h19l14 4 12 7 6 5 7 10 7 15 3 18v29l-5 19-6 12-9 10-6 5-5 3-6 3-13 2h-15l-10-2-13-5-9-6-9-11-6-12-5-18-1-6v-20l5-22 8-16 11-12 8-6z" fill="#FDFDFD"/>
<path transform="translate(1071,1242)" d="m0 0h24l14 5 10 6 8 8 7 12 5 16 2 15v18l-2 16-6 16-7 11-10 9-11 6-14 3h-17l-11-3-16-8-10-9-5-8-5-14-3-15v-27l3-15 5-13 6-9 6-7 10-7 12-5z" fill="#FDFDFD"/>
<path transform="translate(937,1207)" d="m0 0h31l2 2-1 2v33h1v9l-10-2-7-2-12-1-13 2-10 6-7 7-6 10-6 17-1 7-1 119h-46v-206l46-1v16l-1 15 10-2v-7l7-9 9-8 11-6z" fill="#666767"/>
<path transform="translate(610,1209)" d="m0 0 2 2-1 51v153h-45l-1-205z" fill="#666767"/>
<path transform="translate(639,607)" d="m0 0h366l1 1v390l-16 1-377-1v-388l1-2zm7 6-20 2-5 3-3 7v47l-1 49v199l1 26 1 38 1 6 6 3 30 2 29 2h112l13-1h44l34 1 18-1h32l46-1 13-2 3-3 3-17 1-22v-35l-1-20-1-37v-235l-3-10-1-1z" fill="#008BE1"/>
<path transform="translate(583,1120)" d="m0 0h11l11 4 7 6 4 8 1 4v12l-5 10-7 6-11 4h-11l-9-3-9-8-4-8v-15l4-9 8-7z" fill="#666767"/>
<path transform="translate(1e3 618)" d="m0 0h1v380l-16 1h-36l-72-1 1-2 23-1h32l46-1 13-2 3-5 3-26 1-1z" fill="#0091E7"/>
</svg>
